<?xml version="1.0" standalone="no"?>
<!DOCTYPE svg PUBLIC "-//W3C//DTD SVG 20010904//EN"
 "http://www.w3.org/TR/2001/REC-SVG-20010904/DTD/svg10.dtd">
<svg version="1.0" xmlns="http://www.w3.org/2000/svg"
 width="882.000000pt" height="332.000000pt" viewBox="0 0 882.000000 332.000000"
 preserveAspectRatio="xMidYMid meet">

<g transform="translate(0.000000,332.000000) scale(0.100000,-0.100000)"
fill="#000000" stroke="none">
<path d="M2658 2230 c-14 -11 -33 -38 -42 -61 -47 -116 76 -223 182 -159 78
48 81 160 6 219 -36 28 -112 29 -146 1z"/>
<path d="M842 2145 c-43 -31 -52 -65 -52 -198 0 -144 -10 -167 -70 -170 l-35
-2 0 160 c0 158 0 160 23 163 16 3 22 10 22 28 l0 24 -173 0 c-188 0 -272 -11
-327 -41 -95 -53 -126 -203 -55 -269 46 -44 143 -23 165 36 13 33 13 80 0 105
-12 22 -61 49 -90 49 -33 0 -23 30 16 46 19 8 64 18 100 21 l64 6 0 -402 0
-401 -25 0 c-20 0 -25 -5 -25 -25 l0 -25 175 0 175 0 0 25 c0 20 -5 25 -25 25
l-25 0 0 210 0 210 45 0 45 0 0 -147 c0 -123 4 -155 19 -188 39 -84 128 -135
249 -143 73 -5 74 -5 70 19 -2 20 -10 25 -40 27 l-37 3 -3 157 c-2 130 -6 164
-22 196 -24 47 -85 93 -144 108 -34 8 -42 14 -36 27 5 9 9 70 11 136 2 66 6
130 8 142 8 35 33 53 77 53 l40 0 -31 -35 c-25 -29 -31 -45 -31 -81 0 -38 5
-51 31 -75 25 -24 40 -29 79 -29 128 0 151 158 36 244 -37 28 -170 35 -204 11z"/>
<path d="M7939 2140 c-121 -21 -189 -104 -189 -232 1 -95 25 -139 106 -196 16
-11 17 -14 4 -19 -32 -13 -88 -80 -99 -118 -6 -22 -11 -84 -11 -138 0 -98 0
-99 -31 -128 -50 -47 -36 -59 73 -59 111 0 167 21 198 72 18 30 20 50 20 196
l0 162 45 0 45 0 0 -190 c0 -162 -2 -190 -15 -190 -9 0 -15 -9 -15 -25 l0 -25
178 0 c253 0 327 23 374 113 15 28 22 61 22 100 1 54 -2 61 -32 88 -47 43
-102 41 -148 -5 -27 -27 -34 -42 -34 -72 1 -59 46 -104 104 -104 30 0 33 -11
9 -32 -24 -21 -88 -38 -145 -38 l-48 0 0 400 0 400 25 0 c20 0 25 5 25 25 l0
25 -207 -1 c-115 -1 -229 -5 -254 -9z m161 -226 l0 -185 -42 3 -43 3 -3 170
c-1 93 0 175 2 182 3 8 22 13 46 13 l40 0 0 -186z"/>
<path d="M1365 1933 c-141 -19 -230 -117 -186 -205 21 -42 53 -58 118 -58 44
0 58 5 85 29 29 26 33 36 33 79 0 39 -5 56 -23 75 -22 24 -22 25 -3 30 10 2
30 -1 43 -7 22 -11 23 -17 23 -105 l0 -94 -87 -27 c-152 -48 -209 -95 -224
-187 -14 -89 28 -167 111 -204 56 -26 72 -24 138 16 32 19 60 35 62 35 2 0 5
-12 7 -27 l3 -28 138 -3 137 -3 0 25 c0 15 -7 25 -20 29 -19 5 -20 14 -20 231
0 182 -3 234 -15 264 -32 76 -93 116 -202 132 -37 5 -72 9 -78 8 -5 0 -23 -3
-40 -5z m95 -437 c0 -120 -1 -124 -25 -140 -13 -9 -29 -16 -35 -16 -6 0 -10
47 -10 130 0 126 1 131 23 140 46 19 47 17 47 -114z"/>
<path d="M1777 1933 c-15 -15 -7 -55 13 -60 19 -5 20 -14 20 -288 0 -278 0
-283 -21 -288 -13 -4 -20 -12 -17 -24 3 -16 16 -18 158 -18 142 0 155 2 158
18 3 12 -4 20 -17 24 -21 5 -21 10 -21 289 l0 284 55 0 55 0 0 -285 c0 -282 0
-285 -21 -285 -15 0 -20 -5 -17 -22 3 -23 6 -23 156 -26 l152 -3 0 26 c0 16
-6 25 -15 25 -13 0 -15 38 -15 285 0 252 2 285 16 285 11 0 14 8 12 33 l-3 32
-321 3 c-176 1 -323 -1 -327 -5z"/>
<path d="M3030 1905 c0 -24 5 -35 15 -35 13 0 15 -58 15 -465 0 -407 -2 -465
-15 -465 -9 0 -15 -9 -15 -25 l0 -25 170 0 170 0 0 25 c0 20 -5 25 -25 25
l-25 0 0 150 0 150 63 0 c175 1 267 121 267 350 0 158 -42 277 -113 320 -44
28 -67 25 -147 -15 l-69 -35 -3 38 -3 37 -142 3 -143 3 0 -36z m360 -350 l0
-275 -35 0 -35 0 0 263 c0 264 0 264 23 275 48 23 47 29 47 -263z"/>
<path d="M3889 1930 c-94 -16 -165 -70 -176 -133 -8 -53 4 -85 40 -107 38 -24
115 -26 156 -6 55 29 68 114 26 164 -23 27 -24 31 -8 34 22 5 65 -9 75 -25 4
-7 8 -49 8 -94 l0 -82 -87 -27 c-49 -15 -104 -35 -124 -45 -101 -51 -143 -179
-90 -277 17 -32 87 -80 127 -88 27 -5 46 1 97 30 35 19 67 33 71 29 3 -3 6
-17 6 -30 0 -23 0 -23 135 -23 l135 0 0 25 c0 15 -6 25 -14 25 -12 0 -15 40
-18 238 -3 258 -5 268 -65 324 -59 57 -186 86 -294 68z m121 -435 l0 -124 -30
-16 c-16 -8 -34 -15 -40 -15 -6 0 -10 45 -10 128 0 124 1 129 23 140 55 27 57
23 57 -113z"/>
<path d="M5160 1929 c-109 -21 -173 -81 -173 -162 0 -33 6 -46 33 -70 30 -27
37 -29 97 -25 52 3 68 9 90 31 36 36 38 114 4 151 -20 21 -20 24 -6 30 10 3
29 0 43 -7 26 -12 27 -14 27 -106 l0 -94 -87 -27 c-160 -50 -214 -99 -225
-204 -8 -74 22 -136 81 -171 71 -41 94 -41 169 0 l67 37 0 -31 0 -32 138 3
c134 3 137 4 140 26 3 17 -2 22 -17 22 -21 0 -21 4 -21 230 0 186 -3 238 -15
268 -32 76 -93 116 -202 132 -78 11 -82 11 -143 -1z m120 -433 c0 -120 -1
-124 -25 -140 -13 -9 -29 -16 -35 -16 -6 0 -10 47 -10 130 0 126 1 131 23 140
46 19 47 17 47 -114z"/>
<path d="M2570 1905 l0 -25 165 0 165 0 0 25 0 25 -165 0 -165 0 0 -25z"/>
<path d="M4320 1895 c0 -16 6 -25 15 -25 13 0 15 -38 15 -285 0 -247 -2 -285
-15 -285 -9 0 -15 -9 -15 -25 l0 -25 190 0 c104 0 213 5 242 11 151 31 214
138 147 248 -20 33 -105 81 -143 81 -31 0 -7 15 56 33 99 30 138 104 100 189
-39 89 -109 108 -392 108 l-200 0 0 -25z m340 -151 l0 -125 -32 3 -33 3 -3
123 -3 122 36 0 35 0 0 -126z m0 -309 l0 -135 -35 0 -35 0 0 135 0 135 35 0
35 0 0 -135z"/>
<path d="M5862 1898 c2 -17 11 -24 31 -26 l27 -3 0 -232 c0 -128 -4 -247 -10
-266 -13 -47 -48 -81 -81 -81 l-27 0 19 37 c38 74 14 146 -56 173 -96 37 -199
-39 -181 -134 15 -78 91 -127 201 -128 90 -2 137 28 171 107 15 33 18 80 20
280 l3 240 30 3 31 3 0 -285 c0 -248 -2 -286 -15 -286 -9 0 -15 -9 -15 -25 l0
-25 155 0 155 0 0 24 c0 15 -7 26 -20 29 -19 5 -20 14 -20 281 0 265 1 276 20
286 11 6 20 20 20 30 0 19 -8 20 -231 20 l-230 0 3 -22z"/>
<path d="M6350 1899 c0 -12 8 -23 20 -26 19 -5 20 -14 20 -289 0 -277 0 -284
-20 -284 -15 0 -20 -7 -20 -25 l0 -25 228 0 227 0 52 30 c75 43 106 99 105
191 -2 142 -68 200 -239 207 l-93 4 0 93 c0 84 2 93 20 98 12 3 20 14 20 26 0
20 -4 21 -160 21 -156 0 -160 -1 -160 -21z m350 -445 l0 -175 -32 3 -33 3 -3
173 -2 172 35 0 35 0 0 -176z"/>
<path d="M7000 1895 c0 -16 6 -25 15 -25 13 0 15 -38 15 -285 0 -247 -2 -285
-15 -285 -9 0 -15 -9 -15 -25 l0 -25 155 0 155 0 0 25 c0 16 -6 25 -15 25 -13
0 -15 22 -15 135 l0 135 50 0 50 0 0 -135 c0 -113 -2 -135 -15 -135 -9 0 -15
-9 -15 -25 l0 -25 155 0 155 0 0 24 c0 15 -7 26 -20 29 -20 5 -21 12 -20 281
1 262 2 276 21 286 10 6 19 20 19 30 0 19 -8 20 -155 20 l-155 0 0 -25 c0 -16
6 -25 15 -25 13 0 15 -21 15 -125 l0 -125 -50 0 -50 0 0 124 c0 101 3 125 15
130 8 3 15 15 15 26 0 19 -6 20 -155 20 l-155 0 0 -25z"/>
<path d="M2570 1447 l0 -392 80 -80 80 -80 0 141 c0 136 -1 141 -22 152 -20 9
-18 11 22 11 35 0 41 -2 28 -10 -16 -9 -18 -27 -18 -144 0 -75 4 -135 9 -135
5 0 41 35 80 78 l71 77 0 388 0 387 -165 0 -165 0 0 -393z m215 273 c30 -31
36 -42 27 -53 -7 -8 -9 -17 -5 -21 12 -11 14 -126 3 -145 -6 -12 -5 -22 3 -30
9 -9 9 -16 -1 -31 -7 -12 -8 -20 -2 -20 14 0 13 -57 -1 -66 -8 -4 -8 -9 0 -17
6 -6 11 -17 11 -24 0 -16 -69 -93 -83 -93 -6 0 -28 17 -49 37 -38 37 -48 66
-28 78 7 4 7 11 2 18 -5 7 -10 87 -10 180 l0 167 36 30 c20 17 41 30 47 30 6
0 28 -18 50 -40z"/>
<path d="M2725 1580 c3 -5 8 -10 11 -10 2 0 4 5 4 10 0 6 -5 10 -11 10 -5 0
-7 -4 -4 -10z"/>
<path d="M2725 1520 c3 -5 8 -10 11 -10 2 0 4 5 4 10 0 6 -5 10 -11 10 -5 0
-7 -4 -4 -10z"/>
<path d="M2720 1420 c0 -5 5 -10 11 -10 5 0 7 5 4 10 -3 6 -8 10 -11 10 -2 0
-4 -4 -4 -10z"/>
<path d="M1343 1125 c-83 -36 -82 -193 3 -225 31 -12 84 -13 103 -1 23 15 6
39 -23 34 -65 -13 -105 32 -92 100 10 51 37 71 86 63 31 -5 40 -3 40 9 0 33
-62 44 -117 20z"/>
<path d="M1573 1128 c-11 -14 -73 -208 -73 -228 0 -22 34 -5 40 20 5 21 12 25
47 28 38 3 43 0 58 -27 15 -31 56 -44 54 -18 0 6 -17 62 -37 122 -30 89 -41
111 -58 113 -11 2 -25 -3 -31 -10z m42 -111 c7 -38 7 -39 -21 -35 -32 3 -35
19 -14 74 13 34 24 22 35 -39z"/>
<path d="M1769 1123 c-3 -107 -12 -160 -30 -179 -32 -34 -18 -65 20 -45 25 14
41 62 41 122 0 65 7 79 41 79 l28 0 3 -102 c3 -99 4 -103 26 -106 l23 -3 -3
123 -3 123 -72 3 c-64 3 -73 1 -74 -15z"/>
<path d="M2023 1126 c-68 -31 -85 -148 -29 -204 22 -23 35 -27 82 -27 50 0 58
3 85 33 23 25 29 42 29 77 0 24 -4 55 -10 69 -19 51 -99 78 -157 52z m101 -48
c22 -30 21 -101 -1 -126 -27 -31 -57 -35 -84 -13 -20 16 -24 28 -23 76 0 44 4
61 19 71 29 21 72 17 89 -8z"/>
<path d="M2235 1128 c-3 -8 -4 -63 -3 -124 3 -104 4 -109 25 -112 20 -3 22 2
25 50 l3 53 45 0 45 0 3 -52 c3 -49 5 -53 28 -53 l24 0 0 126 c0 124 0 125
-22 122 -20 -3 -23 -10 -26 -56 l-3 -53 -47 3 -47 3 -5 50 c-4 37 -9 51 -23
53 -9 2 -19 -3 -22 -10z"/>
<path d="M3576 1133 c-3 -3 -6 -60 -6 -125 0 -118 0 -119 23 -116 21 3 22 8
25 106 l3 103 47 -3 47 -3 3 -103 c3 -100 3 -103 25 -100 21 3 22 7 22 123 l0
120 -91 2 c-50 2 -94 0 -98 -4z"/>
<path d="M3819 1123 c0 -10 -1 -65 -1 -123 l0 -105 71 -3 c65 -3 71 -1 71 17
0 17 -8 20 -47 23 -46 3 -48 4 -48 33 0 28 3 30 40 35 57 7 55 34 -3 38 -40 3
-43 5 -40 30 3 25 7 27 51 30 39 3 48 6 45 20 -3 14 -17 18 -71 20 -59 3 -67
1 -68 -15z"/>
<path d="M4004 1125 c-4 -9 -4 -37 -1 -63 7 -62 35 -86 94 -79 l43 5 0 -49 c0
-46 2 -49 25 -49 l26 0 -3 123 c-3 114 -4 122 -23 122 -17 0 -21 -8 -25 -55
-5 -53 -6 -55 -36 -58 -39 -4 -52 12 -56 68 -2 33 -8 46 -21 48 -9 2 -20 -4
-23 -13z"/>
<path d="M4297 1133 c-2 -5 -19 -54 -36 -110 -17 -56 -34 -109 -37 -118 -11
-29 25 -16 41 15 13 26 21 30 56 30 36 0 41 -3 50 -30 10 -28 41 -41 52 -22 7
11 -63 226 -77 234 -15 10 -44 10 -49 1z m42 -93 c7 -22 9 -45 6 -50 -9 -14
-55 -13 -55 1 0 21 23 89 30 89 4 0 12 -18 19 -40z"/>
<path d="M4430 1120 c0 -16 6 -20 30 -20 l30 0 0 -105 c0 -105 0 -105 25 -105
24 0 24 1 27 103 l3 102 33 3 c25 3 32 8 30 20 -3 14 -18 17 -91 20 -82 3 -87
2 -87 -18z"/>
<path d="M4657 1134 c-4 -4 -7 -61 -7 -126 0 -117 1 -119 22 -116 14 2 36 28
67 77 63 102 71 102 71 1 0 -79 1 -81 23 -78 21 3 22 6 22 123 0 113 -1 120
-20 120 -14 0 -36 -25 -75 -84 l-55 -85 -5 84 c-4 66 -8 85 -20 88 -9 1 -19 0
-23 -4z"/>
<path d="M340 975 c0 -13 51 -15 395 -15 344 0 395 2 395 15 0 13 -51 15 -395
15 -344 0 -395 -2 -395 -15z"/>
<path d="M4980 975 c0 -13 207 -15 1800 -15 1593 0 1800 2 1800 15 0 13 -207
15 -1800 15 -1593 0 -1800 -2 -1800 -15z"/>
</g>
</svg>
